<svg width="75" height="80" viewBox="0 0 75 80" fill="none" xmlns="http://www.w3.org/2000/svg">
<path d="M30.9264 76.0176L30.0338 77.0108C28.8959 78.2769 27.2737 79 25.5713 79H12.123C4.56741 79 -0.465032 71.1959 2.65243 64.3134L28.3786 7.51784C32.3782 -1.31207 45.0155 -1.02714 48.613 7.97407L72.6068 68.0079C74.7113 73.2736 70.8332 79 65.1625 79C61.7688 79 58.7428 76.8631 57.6076 73.665L48.2109 47.1934C44.8918 37.8431 31.8653 37.3198 27.8069 46.3737L21.9748 59.3845C20.3719 62.9603 22.9881 67 26.9067 67C31.5842 67 34.0532 72.5387 30.9264 76.0176Z" stroke="white" stroke-width="2"/>
</svg>
